<svg width="40" height="42" viewBox="0 0 40 42" fill="none" xmlns="http://www.w3.org/2000/svg">
<path d="M20.0045 10.2317C14.3291 10.2317 9.75125 15.0395 9.75125 21C9.75125 26.9605 14.3291 31.7683 20.0045 31.7683C25.6799 31.7683 30.2577 26.9605 30.2577 21C30.2577 15.0395 25.6799 10.2317 20.0045 10.2317ZM20.0045 28.0008C16.3369 28.0008 13.3385 24.8612 13.3385 21C13.3385 17.1388 16.3279 13.9992 20.0045 13.9992C23.681 13.9992 26.6704 17.1388 26.6704 21C26.6704 24.8612 23.6721 28.0008 20.0045 28.0008ZM33.0686 9.79125C33.0686 11.1877 31.9978 12.3029 30.6771 12.3029C29.3475 12.3029 28.2856 11.1783 28.2856 9.79125C28.2856 8.40422 29.3564 7.27959 30.6771 7.27959C31.9978 7.27959 33.0686 8.40422 33.0686 9.79125ZM39.8595 12.3404C39.7078 8.9759 38.976 5.99565 36.6291 3.54022C34.2911 1.08479 31.4534 0.3163 28.2499 0.147607C24.9481 -0.0492023 15.0519 -0.0492023 11.7501 0.147607C8.55549 0.306928 5.71779 1.07542 3.37089 3.53085C1.02398 5.98628 0.301171 8.96653 0.140547 12.331C-0.0468489 15.7986 -0.0468489 26.192 0.140547 29.6596C0.292248 33.0241 1.02398 36.0044 3.37089 38.4598C5.71779 40.9152 8.54657 41.6837 11.7501 41.8524C15.0519 42.0492 24.9481 42.0492 28.2499 41.8524C31.4534 41.6931 34.2911 40.9246 36.6291 38.4598C38.9671 36.0044 39.6988 33.0241 39.8595 29.6596C40.0468 26.192 40.0468 15.808 39.8595 12.3404ZM35.594 33.3802C34.8979 35.2171 33.5505 36.6323 31.7925 37.3726C29.1601 38.4692 22.9136 38.2161 20.0045 38.2161C17.0954 38.2161 10.8399 38.4598 8.2164 37.3726C6.46737 36.6416 5.11991 35.2265 4.41495 33.3802C3.37089 30.6155 3.61182 24.0552 3.61182 21C3.61182 17.9448 3.37981 11.3751 4.41495 8.61977C5.11099 6.78289 6.45845 5.36773 8.2164 4.62736C10.8489 3.53085 17.0954 3.78389 20.0045 3.78389C22.9136 3.78389 29.169 3.54022 31.7925 4.62736C33.5416 5.35836 34.889 6.77351 35.594 8.61977C36.638 11.3845 36.3971 17.9448 36.3971 21C36.3971 24.0552 36.638 30.6249 35.594 33.3802Z" fill="white"/>
</svg>
