<svg width="42" height="44" viewBox="0 0 42 44" fill="none" xmlns="http://www.w3.org/2000/svg">
<path d="M18.884 10.5461C18.884 5.29623 22.5371 0.929278 26.8813 1.00087C28.4026 1.02209 29.8866 1.57387 31.1546 2.58986C32.4227 3.60585 33.421 5.04281 34.0295 6.72802H41L34.6219 14.4358C34.2103 22.1784 31.3742 29.4409 26.6901 34.7468C22.0061 40.0528 15.8257 43.0038 9.40566 43C3.08679 43 1.50707 40.1364 1.50707 40.1364C1.50707 40.1364 7.82594 37.2728 10.9854 31.5457C10.9854 31.5457 -1.65236 23.9095 1.50707 2.90992C1.50707 2.90992 9.40566 12.4552 18.884 14.3642V10.5461Z" stroke="white" stroke-width="2" stroke-linecap="round" stroke-linejoin="round"/>
</svg>
